<?xml version="1.0" encoding="UTF-8"?>

<svg version="1.1" xmlns="http://www.w3.org/2000/svg" xmlns:xlink="http://www.w3.org/1999/xlink">
    <symbol viewBox="0 0 343 58" id="logo" xmlns="http://www.w3.org/2000/svg">
        <path fill-rule="evenodd" clip-rule="evenodd" d="M10.9576 34.3246L14.3585 36.2587V48.651L0 40.5092V11.1684L10.9576 17.3989V34.3246ZM19.8373 6.2757V57.9547L50.6243 40.5092V11.1684L39.6667 17.3989V34.3246L25.853 42.1682L30.787 36.381V0.045166L19.8373 6.2757ZM64.0567 31.1215C63.9633 31.1138 59.2938 31.1062 59.2005 31.1062L59.216 33.6137C59.8853 33.629 65.2474 33.6366 66.1346 33.6366C67.9945 33.6366 69.4965 33.5831 70.6405 33.4684C71.7067 33.3538 72.4616 33.0938 72.913 32.6734C73.5045 32.1229 73.7924 31.1903 73.7924 29.8677C73.7846 28.8204 73.5901 28.0177 73.1932 27.4672C72.734 26.8251 71.8779 26.4734 70.6094 26.4122C69.5043 26.3511 68.656 26.3282 68.0646 26.3282H64.687C63.8621 26.3129 63.3718 26.2823 63.2317 26.2441C62.7103 26.1141 62.4535 25.8007 62.4457 25.3114C62.4457 25.0591 62.508 24.8527 62.648 24.6922C62.8037 24.501 63.1617 24.3864 63.7298 24.3481C64.4925 24.2946 65.5898 24.2717 67.0217 24.2717C67.2708 24.2717 72.9441 24.2717 73.162 24.2793L73.1465 21.7642C72.9244 21.7642 71.4619 21.7625 69.9276 21.7607C68.2353 21.7586 66.4559 21.7565 66.1579 21.7565C65.1073 21.7565 64.2901 21.7718 63.7298 21.7948C62.2823 21.8483 61.2161 22.0165 60.5157 22.284C60.041 22.4752 59.6752 22.7427 59.4106 23.102C59.0448 23.6142 58.8658 24.4093 58.8736 25.4872C58.8736 26.5804 59.0682 27.3831 59.4573 27.8877C59.9009 28.4611 60.6558 28.7898 61.7064 28.8815C62.3601 28.935 63.1306 28.9656 64.0255 28.9656H67.3097C67.7235 28.9656 68.0193 28.9694 68.1969 28.9716C68.2731 28.9726 68.3276 28.9733 68.3603 28.9733C68.9206 28.9809 69.3331 29.0191 69.5744 29.1032C69.9868 29.2332 70.1892 29.5543 70.1969 30.0741C70.1969 30.4564 70.0491 30.7239 69.7611 30.8692C69.4498 31.0221 68.7339 31.1138 67.621 31.1291C66.1034 31.1597 64.9205 31.152 64.0567 31.1215ZM89.1781 31.0297H82.0184L81.9872 24.5163H88.6567C89.217 24.5163 89.5828 24.5469 89.7618 24.6004C90.1898 24.738 90.4934 25.1126 90.4934 25.6172C90.5011 26.0529 90.3455 26.3434 90.042 26.4963C89.8396 26.5881 89.4427 26.6416 88.8513 26.6416H85.9562L85.964 28.9656H89.1703C89.7852 28.9656 90.1743 28.9733 90.3299 29.0268C90.7346 29.172 90.9447 29.5084 90.9447 30.0283C90.9447 30.5328 90.6568 30.808 90.2832 30.938C90.1042 31.0068 89.7385 31.0297 89.1781 31.0297ZM78.3217 21.9171L78.3684 33.6366H90.4077C91.7152 33.6366 92.4156 33.499 92.937 33.2238C93.8475 32.7422 94.2989 31.8095 94.2989 30.4258C94.2911 29.3479 94.0032 28.614 93.4429 28.2164C93.0693 27.9565 92.6179 27.7807 91.6763 27.6966C92.4078 27.5819 92.9292 27.3984 93.2327 27.1614C93.7464 26.741 94.0032 26.0224 93.9954 25.0056C93.9954 24.3787 93.9098 23.8742 93.7386 23.4766C93.5207 22.9874 93.1471 22.6051 92.6179 22.3376C92.0576 22.0547 91.1471 21.9171 89.8785 21.9171H78.3217ZM338.253 33.5525H343L342.953 21.8254H339.303V29.99L330.836 21.8254H325.521V33.6366H329.311L329.163 24.7304L338.253 33.5525ZM310.003 24.6539C310.462 24.5851 311.435 24.5546 312.921 24.5546C314.026 24.5546 314.913 24.5698 315.575 24.6157C316.057 24.6386 316.462 24.738 316.773 24.9062C316.945 24.998 317.085 25.1432 317.186 25.3573C317.349 25.686 317.435 26.4122 317.443 27.5284C317.443 28.0941 317.435 28.4993 317.419 28.7516C317.38 29.2867 317.287 29.6919 317.139 29.9518C316.96 30.2729 316.618 30.4946 316.127 30.6169C315.692 30.7239 314.602 30.7698 312.851 30.7698C311.45 30.7698 310.54 30.7392 310.119 30.6857C309.38 30.5787 308.905 30.3111 308.695 29.8677C308.532 29.5237 308.446 28.7669 308.446 27.5972C308.439 26.504 308.524 25.7777 308.688 25.4261C308.874 25.0132 309.31 24.761 310.003 24.6539ZM317.933 21.8636C317.24 21.7489 315.466 21.6877 312.61 21.6877C311.139 21.6877 310.088 21.7107 309.442 21.7489C307.933 21.8406 306.859 22.1082 306.213 22.5363C305.613 22.9415 305.209 23.5454 304.999 24.3481C304.89 24.738 304.82 25.1279 304.796 25.5178C304.765 25.9077 304.757 26.6034 304.757 27.5896C304.765 29.0803 304.82 30.0818 304.921 30.5863C305.084 31.4196 305.388 32.0618 305.824 32.5128C306.267 32.9639 306.96 33.2773 307.894 33.4455C308.579 33.5754 310.244 33.6366 312.89 33.6366C314.034 33.6366 315.022 33.6213 315.863 33.5907C316.789 33.5678 317.497 33.5066 317.972 33.4073C318.454 33.3155 318.906 33.1473 319.357 32.9027C319.902 32.5969 320.322 32.1229 320.61 31.4655C320.914 30.7927 321.061 29.5849 321.054 27.8495C321.046 26.4352 321.007 25.4872 320.937 24.998C320.82 24.1341 320.54 23.4461 320.104 22.9415C319.645 22.3987 318.921 22.0471 317.933 21.8636ZM296.547 21.9171V33.6213H300.197V21.9171H296.547ZM281.418 24.8145L281.449 33.6366H285.084L285.052 24.8145H292.018L292.002 21.9171H274.437L274.453 24.8145H281.418ZM271.215 33.6366L264.818 21.9171H260.211L253.651 33.6366H257.697L262.476 24.7839L267.215 33.6366H271.215ZM234.607 30.9456L234.623 33.6366H249.09L249.082 30.9839H239.79L248.896 24.5928L248.888 21.9171H234.794L234.802 24.5698H243.58L234.607 30.9456ZM226.576 21.9171V33.6366H230.218V21.9171H226.576ZM215.642 30.8615H222.054L222.062 33.6366C220.848 33.6366 213.82 33.6213 213.494 33.5907C212.225 33.499 211.291 33.1856 210.684 32.6504C210.03 32.0694 209.665 31.282 209.579 30.2729C209.548 29.8295 209.525 29.0268 209.509 27.8724L209.486 21.8254H213.12L213.143 28.5757C213.151 29.065 213.167 29.3937 213.175 29.5543C213.198 29.9212 213.284 30.1964 213.439 30.3799C213.727 30.701 214.459 30.8615 215.642 30.8615ZM205.058 33.6366L198.66 21.9171H194.053L187.493 33.6366H191.54L196.318 24.7839L201.057 33.6366H205.058ZM173.625 24.7075H182.87L182.862 21.9171H172.551C171.461 21.9171 170.636 21.9706 170.068 22.0853C169.445 22.2076 168.932 22.4828 168.512 22.9109C167.99 23.4461 167.671 24.0806 167.562 24.8298C167.453 25.6019 167.399 26.5804 167.399 27.773C167.406 28.7592 167.453 29.6231 167.554 30.3646C167.64 30.9762 167.796 31.4884 168.029 31.8936C168.512 32.7345 169.305 33.2544 170.403 33.4455C171.119 33.5754 172.006 33.6366 173.064 33.6366H182.901L182.893 30.7316H173.593C173.018 30.7316 172.574 30.6857 172.247 30.594C171.749 30.4564 171.414 30.1353 171.259 29.6384C171.119 29.2255 171.056 28.591 171.049 27.7501C171.049 27.0926 171.072 26.5651 171.134 26.1676C171.235 25.4643 171.578 25.0209 172.154 24.8451C172.449 24.7533 172.94 24.7075 173.625 24.7075ZM151.826 24.6539C152.285 24.5851 153.258 24.5546 154.745 24.5546C155.85 24.5546 156.729 24.5698 157.398 24.6157C157.881 24.6386 158.278 24.738 158.597 24.9062C158.768 24.998 158.9 25.1432 159.009 25.3573C159.173 25.686 159.258 26.4122 159.258 27.5284C159.258 28.0941 159.251 28.4993 159.235 28.7516C159.196 29.2867 159.103 29.6919 158.955 29.9518C158.776 30.2729 158.441 30.4946 157.943 30.6169C157.515 30.7239 156.418 30.7698 154.667 30.7698C153.266 30.7698 152.363 30.7392 151.943 30.6857C151.204 30.5787 150.729 30.3111 150.511 29.8677C150.348 29.5237 150.27 28.7669 150.262 27.5972C150.254 26.504 150.34 25.7777 150.503 25.4261C150.69 25.0132 151.134 24.761 151.826 24.6539ZM159.749 21.8636C159.064 21.7489 157.289 21.6877 154.425 21.6877C152.962 21.6877 151.904 21.7107 151.266 21.7489C149.748 21.8406 148.674 22.1082 148.036 22.5363C147.437 22.9415 147.032 23.5454 146.822 24.3481C146.713 24.738 146.643 25.1279 146.612 25.5178C146.581 25.9077 146.573 26.6034 146.573 27.5896C146.581 29.0803 146.635 30.0818 146.737 30.5863C146.908 31.4196 147.203 32.0618 147.647 32.5128C148.091 32.9639 148.775 33.2773 149.709 33.4455C150.394 33.5754 152.067 33.6366 154.706 33.6366C155.85 33.6366 156.838 33.6213 157.679 33.5907C158.612 33.5678 159.313 33.5066 159.795 33.4073C160.27 33.3155 160.729 33.1473 161.173 32.9027C161.718 32.5969 162.138 32.1229 162.434 31.4655C162.737 30.7927 162.885 29.5849 162.877 27.8495C162.869 26.4352 162.83 25.4872 162.76 24.998C162.644 24.1341 162.363 23.4461 161.92 22.9415C161.461 22.3987 160.745 22.0471 159.749 21.8636ZM135.616 30.8615H142.028L142.036 33.6366C140.822 33.6366 133.794 33.6213 133.468 33.5907C132.199 33.499 131.265 33.1856 130.658 32.6504C130.004 32.0694 129.639 31.282 129.553 30.2729C129.522 29.8295 129.499 29.0268 129.483 27.8724L129.46 21.9171H133.094L133.117 28.5757C133.125 29.065 133.141 29.3937 133.148 29.5543C133.172 29.9212 133.257 30.1964 133.413 30.3799C133.701 30.701 134.433 30.8615 135.616 30.8615ZM105.521 24.8145L105.552 33.6366H109.179L109.148 24.8145H116.121L116.105 21.9171H98.5403L98.5481 24.8145H105.521Z" fill="currentColor" />
    </symbol>

    <symbol viewBox="0 0 343 400" id="logo-single" xmlns="http://www.w3.org/2000/svg">
        <path d="M97.2557 250.113L74.2352 236.794V119.875L0 76.8214V279.499L97.2557 335.733V250.113ZM134.373 400V43.0534L208.574 0V250.982L175.137 290.941L268.747 236.794V119.875L342.947 76.8214V279.499L134.373 400Z" fill="currentColor" />
    </symbol>

    <symbol viewBox="0 0 11 7" id="dropdown-arrow" xmlns="http://www.w3.org/2000/svg">
        <path d="M4.95544 6.40956L0.225766 1.67973C-0.0752545 1.37886 -0.0752545 0.891039 0.225766 0.59031C0.526518 0.289557 1.01431 0.289557 1.31504 0.59031L5.50008 4.77548L9.68498 0.590432C9.98585 0.289679 10.4736 0.28968 10.7743 0.590432C11.0752 0.891185 11.0752 1.37898 10.7743 1.67985L6.04459 6.40969C5.89414 6.56006 5.69717 6.63517 5.5001 6.63517C5.30294 6.63517 5.10582 6.55992 4.95544 6.40956Z" fill="currentColor" />
    </symbol>

    <symbol viewBox="0 0 11 17" id="arrow-left" xmlns="http://www.w3.org/2000/svg">
        <path d="M1.00371 9.34159L8.31345 16.6511C8.77844 17.1163 9.53234 17.1163 9.9971 16.6511C10.4619 16.1863 10.4619 15.4324 9.9971 14.9677L3.52911 8.49988L9.99692 2.03231C10.4617 1.56732 10.4617 0.813539 9.99692 0.34874C9.53212 -0.116247 8.77825 -0.116247 8.31327 0.34874L1.00352 7.65836C0.771123 7.89087 0.655054 8.19528 0.655054 8.49984C0.655054 8.80455 0.771349 9.10919 1.00371 9.34159Z" fill="currentColor"/>
    </symbol>

    <symbol viewBox="0 0 11 17" id="arrow-right" xmlns="http://www.w3.org/2000/svg">
        <path d="M9.99629 9.34159L2.68655 16.6511C2.22156 17.1163 1.46766 17.1163 1.0029 16.6511C0.538097 16.1863 0.538097 15.4324 1.0029 14.9677L7.47089 8.49988L1.00308 2.03231C0.538285 1.56732 0.538285 0.813539 1.00308 0.34874C1.46788 -0.116247 2.22175 -0.116247 2.68673 0.34874L9.99648 7.65836C10.2289 7.89087 10.3449 8.19528 10.3449 8.49984C10.3449 8.80455 10.2287 9.10919 9.99629 9.34159Z" fill="currentColor"/>
    </symbol>

    <symbol viewBox="0 0 22 22" id="search" xmlns="http://www.w3.org/2000/svg">
        <path d="M21.3248 20.1751L16.2396 15.0909C17.7135 13.3214 18.4485 11.0518 18.2916 8.75417C18.1347 6.45657 17.0981 4.30789 15.3974 2.75512C13.6967 1.20234 11.4628 0.365027 9.16039 0.417352C6.85803 0.469677 4.66448 1.40761 3.03605 3.03605C1.40761 4.66448 0.469677 6.85803 0.417352 9.16039C0.365027 11.4628 1.20234 13.6967 2.75512 15.3974C4.30789 17.0981 6.45657 18.1347 8.75417 18.2916C11.0518 18.4485 13.3214 17.7135 15.0909 16.2396L20.1751 21.3248C20.2506 21.4003 20.3403 21.4602 20.4389 21.5011C20.5375 21.5419 20.6432 21.5629 20.75 21.5629C20.8567 21.5629 20.9625 21.5419 21.0611 21.5011C21.1597 21.4602 21.2493 21.4003 21.3248 21.3248C21.4003 21.2493 21.4602 21.1597 21.5011 21.0611C21.5419 20.9625 21.5629 20.8567 21.5629 20.75C21.5629 20.6432 21.5419 20.5375 21.5011 20.4389C21.4602 20.3403 21.4003 20.2506 21.3248 20.1751ZM2.06249 9.37499C2.06249 7.92871 2.49136 6.51491 3.29487 5.31238C4.09837 4.10985 5.24043 3.17258 6.57661 2.61912C7.9128 2.06565 9.3831 1.92084 10.8016 2.203C12.2201 2.48515 13.523 3.1816 14.5457 4.20427C15.5684 5.22694 16.2648 6.5299 16.547 7.94839C16.8291 9.36688 16.6843 10.8372 16.1309 12.1734C15.5774 13.5095 14.6401 14.6516 13.4376 15.4551C12.2351 16.2586 10.8213 16.6875 9.37499 16.6875C7.43625 16.6853 5.57754 15.9142 4.20664 14.5433C2.83575 13.1724 2.06464 11.3137 2.06249 9.37499Z" fill="currentColor" />
    </symbol>

    <symbol viewBox="0 0 24 24" id="file" xmlns="http://www.w3.org/2000/svg">
        <path fill-rule="evenodd" clip-rule="evenodd" d="M15.4264 23.6458H8.92644C3.04394 23.6458 0.530609 21.1325 0.530609 15.25V8.74996C0.530609 2.86746 3.04394 0.354126 8.92644 0.354126H13.2598C13.7039 0.354126 14.0723 0.722459 14.0723 1.16663C14.0723 1.61079 13.7039 1.97913 13.2598 1.97913H8.92644C3.93228 1.97913 2.15561 3.75579 2.15561 8.74996V15.25C2.15561 16.4344 2.25555 17.4379 2.47464 18.2796L6.95456 15.2718C8.12456 14.4918 9.73873 14.5785 10.8004 15.4776L11.1579 15.7918C11.6996 16.2576 12.6204 16.2576 13.1512 15.7918L17.6579 11.9243C18.8062 10.9385 20.6154 10.9385 21.7746 11.9243L22.1973 12.2874V9.83329C22.1973 9.38913 22.5656 9.02079 23.0098 9.02079C23.4539 9.02079 23.8223 9.38913 23.8223 9.83329V15.25C23.8223 21.1325 21.3089 23.6458 15.4264 23.6458ZM22.1973 14.4342V15.25C22.1973 20.2441 20.4206 22.0208 15.4264 22.0208H8.92644C5.94776 22.0208 4.11364 21.3888 3.11839 19.819L7.86457 16.626C8.41708 16.2468 9.2404 16.2901 9.73873 16.7126L10.0962 17.0268C11.2554 18.0126 13.0646 18.0126 14.2129 17.0268L18.7196 13.1593C19.2612 12.6935 20.1712 12.6935 20.7129 13.1593L22.1973 14.4342ZM8.92646 10.6458C7.2798 10.6458 5.9473 9.31333 5.9473 7.66667C5.9473 6.02 7.2798 4.6875 8.92646 4.6875C10.5731 4.6875 11.9056 6.02 11.9056 7.66667C11.9056 9.31333 10.5731 10.6458 8.92646 10.6458ZM8.92646 6.3125C8.17896 6.3125 7.5723 6.91917 7.5723 7.66667C7.5723 8.41417 8.17896 9.02083 8.92646 9.02083C9.67396 9.02083 10.2806 8.41417 10.2806 7.66667C10.2806 6.91917 9.67396 6.3125 8.92646 6.3125ZM17.864 7.66656C17.864 8.11073 18.2323 8.47906 18.6765 8.47906C19.1206 8.47906 19.489 8.11073 19.489 7.66656V3.12739L20.269 3.90739C20.5831 4.22156 21.1031 4.22156 21.4173 3.90739C21.7315 3.59323 21.7315 3.07323 21.4173 2.75906L19.2506 0.592393L19.2473 0.589283C19.0068 0.351443 18.6476 0.296104 18.3518 0.423266C18.2387 0.469681 18.141 0.541884 18.0634 0.631228L15.9355 2.7591C15.6213 3.07327 15.6213 3.59327 15.9355 3.90744C16.098 4.06994 16.3038 4.14577 16.5097 4.14577C16.7155 4.14577 16.9213 4.06994 17.0838 3.90744L17.864 3.12733V7.66656Z" fill="currentColor"/>
    </symbol>

    <symbol viewBox="0 0 23 27" id="donatello" xmlns="http://www.w3.org/2000/svg">
        <path d="M9.30215 26.1694H7.75897C7.17864 26.1694 6.57193 26.0884 5.95202 26.0075C5.33212 25.9265 4.71222 25.8321 4.09232 25.7107C3.50652 25.6007 2.93238 25.4335 2.37771 25.2116C1.74507 25.0375 1.1874 24.6522 0.793156 24.117C0.398917 23.5819 0.190657 22.9274 0.201429 22.2574V3.37269C0.181348 3.12839 0.210843 2.88247 0.288008 2.65035C0.365174 2.41824 0.488341 2.20493 0.649863 2.02377C1.00653 1.67862 1.43488 1.42039 1.90287 1.26838C3.07213 0.881302 4.27975 0.627956 5.50359 0.512997C6.76977 0.396087 7.90404 0.337632 8.90643 0.337632C10.8015 0.314265 12.6898 0.573281 14.5119 1.10652C16.0981 1.56877 17.5689 2.37375 18.8248 3.46712C20.0541 4.57327 21.012 5.95947 21.6211 7.51386C22.9116 11.1941 22.9116 15.2185 21.6211 18.8986C21.0284 20.4416 20.0991 21.8257 18.904 22.9455C17.6895 24.0592 16.2544 24.892 14.6966 25.387C12.9492 25.9331 11.1291 26.1971 9.30215 26.1694ZM7.0863 20.2612C7.37646 20.315 7.73257 20.3601 8.15463 20.396C8.57668 20.432 8.97241 20.432 9.34171 20.396C10.1847 20.4064 11.0233 20.2694 11.8213 19.9913C12.5546 19.7339 13.2186 19.3043 13.7601 18.7369C14.3572 18.1106 14.8081 17.3542 15.079 16.5246C15.4011 15.4733 15.5526 14.3752 15.5275 13.2737C15.6733 11.2945 15.0794 9.33244 13.8656 7.78367C13.2994 7.16997 12.6104 6.6884 11.8456 6.3718C11.0808 6.05521 10.2582 5.91103 9.434 5.94912H8.31294L7.13906 6.07052L7.0863 20.2612Z" fill="currentColor"/>
    </symbol>

    <symbol viewBox="0 0 28 29" id="patreon" xmlns="http://www.w3.org/2000/svg">
        <path d="M17.7547 0.75C12.2931 0.75 7.85035 5.38251 7.85035 11.0773C7.85035 16.7543 12.2931 21.3691 17.7547 21.3691C23.1992 21.3691 27.625 16.7543 27.625 11.0773C27.6307 5.38251 23.1992 0.75 17.7547 0.75ZM0.125 28.25H4.96396V0.75H0.125" fill="currentColor" />
    </symbol>

    <symbol viewBox="0 0 21 29" id="cofee" xmlns="http://www.w3.org/2000/svg">
        <path d="M20.4278 7.75141L20.2683 6.94666C20.1245 6.22408 19.7994 5.54137 19.0587 5.28037C18.8207 5.197 18.5512 5.16195 18.37 4.98916C18.1863 4.81637 18.1331 4.54691 18.0909 4.298C18.0123 3.84125 17.9398 3.38449 17.8589 2.92895C17.79 2.53624 17.7356 2.0952 17.5568 1.73633C17.3211 1.25299 16.8354 0.970245 16.3533 0.784161C16.1058 0.691638 15.8533 0.613371 15.5969 0.549745C14.3885 0.231953 13.1198 0.114744 11.8788 0.0470777C10.3887 -0.0348547 8.89455 -0.00981827 7.40798 0.121994C6.30235 0.222286 5.13631 0.344328 4.08506 0.726161C3.70081 0.866328 3.30448 1.03549 3.01206 1.33154C2.65319 1.69645 2.53719 2.26195 2.79819 2.71629C2.98427 3.03891 3.29965 3.26729 3.63435 3.41712C4.06935 3.61287 4.5249 3.76029 4.99131 3.85937C6.29027 4.14695 7.63635 4.25933 8.9631 4.30645C10.4349 4.36687 11.9078 4.31854 13.3735 4.16387C13.7348 4.124 14.0961 4.07566 14.4562 4.02008C14.8815 3.95483 15.1546 3.4002 15.0289 3.01233C14.8791 2.54954 14.4767 2.3707 14.0212 2.44079C13.4581 2.5302 12.8612 2.57129 12.3513 2.6172C10.9291 2.71387 9.50202 2.71629 8.0786 2.62445C7.61154 2.59355 7.14537 2.55043 6.68056 2.49516C6.57665 2.48308 6.46306 2.46495 6.36881 2.45166C6.07519 2.40816 5.78398 2.35499 5.49398 2.29458C5.35985 2.26195 5.35985 2.07104 5.49398 2.03841H5.50002C5.83473 1.96591 6.17306 1.90791 6.5126 1.86079H6.51502C6.67331 1.84991 6.83281 1.82212 6.9911 1.80279C8.3661 1.66008 9.74925 1.61163 11.1309 1.65779C11.9453 1.68074 12.7585 1.73874 13.5681 1.83179L13.8436 1.86924C14.1662 1.91758 14.4876 1.97558 14.8078 2.04445C15.2815 2.14716 15.8893 2.18099 16.1007 2.69937C16.1672 2.86491 16.1974 3.04737 16.2349 3.22016L16.6203 5.01333C16.6285 5.05178 16.6287 5.0915 16.6208 5.13002C16.613 5.16853 16.5973 5.20502 16.5747 5.23722C16.5522 5.26941 16.5232 5.29661 16.4897 5.31713C16.4562 5.33765 16.4188 5.35105 16.3799 5.3565H16.3762C16.3315 5.36375 16.2856 5.36858 16.2409 5.37462C14.3402 5.61712 12.4258 5.73618 10.5098 5.73108C8.61125 5.72912 6.71476 5.60643 4.83181 5.36375C4.66265 5.3432 4.47777 5.313 4.32794 5.29125C3.93402 5.23325 3.54373 5.16075 3.15223 5.0967C2.67735 5.01816 2.22423 5.05804 1.79527 5.29125C1.44485 5.48458 1.15848 5.77941 0.979646 6.13829C0.793562 6.52012 0.739188 6.93579 0.657021 7.34662C0.573646 7.75745 0.444354 8.20091 0.493896 8.62262C0.599021 9.5325 1.2346 10.272 2.14931 10.4375C6.67267 11.2448 11.2886 11.3978 15.8554 10.8919C15.9422 10.882 16.0301 10.8917 16.1126 10.9203C16.1951 10.9489 16.2701 10.9957 16.3322 11.0571C16.3942 11.1186 16.4417 11.1932 16.471 11.2754C16.5004 11.3577 16.511 11.4454 16.5019 11.5323L16.4161 12.3745L15.186 24.3455C15.1365 24.8409 15.1292 25.3508 15.035 25.8402C14.8876 26.6099 14.3668 27.0823 13.6067 27.2551C12.9095 27.4134 12.199 27.4968 11.4849 27.5028C10.6922 27.5077 9.90198 27.4726 9.10931 27.4762C8.26469 27.4811 7.22915 27.4037 6.57785 26.7754C6.0039 26.222 5.92535 25.3568 5.84681 24.6089L4.96352 16.1348L4.57444 12.3962C4.52973 11.9721 4.22885 11.5565 3.75519 11.577C3.34919 11.5951 2.8876 11.9395 2.93594 12.3975L3.21144 15.0377L4.35815 26.048C4.53577 27.672 5.77673 28.5468 7.31373 28.7933C8.21031 28.9383 9.12985 28.9673 10.0409 28.9818C11.2082 29.0012 12.3875 29.0459 13.5354 28.8344C15.2368 28.5227 16.514 27.3868 16.6964 25.6239C17.1073 21.5977 17.5217 17.5727 17.9338 13.5466L18.1936 11.0248C18.2064 10.8997 18.2591 10.7821 18.344 10.6894C18.4289 10.5967 18.5414 10.5338 18.6648 10.51C19.1506 10.4158 19.6158 10.2539 19.9626 9.88412C20.5124 9.29446 20.6223 8.52716 20.4278 7.75141ZM18.6419 8.68425C18.4666 8.84979 18.2032 8.92712 17.9434 8.96579C15.0241 9.39958 12.0637 9.61829 9.11294 9.52162C7.00077 9.44912 4.91156 9.2147 2.82115 8.91987C2.61573 8.89087 2.3946 8.85341 2.25323 8.70237C1.9874 8.4172 2.1191 7.84445 2.18798 7.50008C2.25081 7.18591 2.37165 6.7642 2.74744 6.7195C3.33227 6.65062 4.01135 6.89833 4.59135 6.98533C5.28856 7.09166 5.98819 7.17745 6.69023 7.2415C9.6869 7.51458 12.7343 7.47108 15.7189 7.07233C16.2626 6.99983 16.8052 6.91525 17.3441 6.81858C17.8262 6.73158 18.3591 6.56966 18.6491 7.0675C18.8497 7.40704 18.8763 7.86137 18.8449 8.24441C18.8353 8.41169 18.7623 8.56902 18.6406 8.68425H18.6419ZM11.1997 13.3967C10.1581 13.8438 8.9764 14.3489 7.44302 14.3489C6.80213 14.3474 6.1644 14.2592 5.54715 14.0867L6.60685 24.9665C6.6854 25.909 7.47323 26.634 8.41935 26.634C8.41935 26.634 9.92131 26.7126 10.4228 26.7126C10.9629 26.7126 12.5809 26.634 12.5809 26.634C13.527 26.634 14.3136 25.909 14.3921 24.9665L15.528 12.9436C15.0155 12.7583 14.4754 12.6611 13.9306 12.656C12.9325 12.656 12.1289 12.9992 11.1997 13.3967Z" fill="currentColor" />
    </symbol>

    <symbol viewBox="0 0 17 32" id="facebook" xmlns="http://www.w3.org/2000/svg">
        <path d="M10.7785 17.0016H15.8965L16.7 11.7708H10.7774V8.91184C10.7774 6.73886 11.4832 4.81198 13.5035 4.81198H16.75V0.247144C16.1796 0.16965 14.9732 0 12.6937 0C7.93376 0 5.14317 2.52904 5.14317 8.29084V11.7708H0.25V17.0016H5.14317V31.3789C6.11223 31.5255 7.09377 31.625 8.10134 31.625C9.01211 31.625 9.90102 31.5412 10.7785 31.4218V17.0016Z" fill="currentColor" />
    </symbol>

    <symbol viewBox="0 0 27 25" id="x" xmlns="http://www.w3.org/2000/svg">
        <path d="M0.812835 0.125L10.8993 13.7759L0.75 24.875H3.03487L11.9215 15.158L19.1009 24.875H26.875L16.2215 10.4562L25.669 0.125H23.3841L15.2009 9.07409L8.58842 0.125H0.81435H0.812835ZM4.17193 1.82826H7.74252L23.5128 23.1717H19.9423L4.17193 1.82826Z" fill="currentColor" />
    </symbol>

    <symbol viewBox="0 0 27 24" id="telegram" xmlns="http://www.w3.org/2000/svg">
        <path d="M26.5 1.32806L22.3675 22.9019C22.3675 22.9019 21.7893 24.3977 20.201 23.6803L10.6663 16.1098L10.6221 16.0875C11.91 14.8899 21.897 5.59116 22.3335 5.16967C23.0092 4.51687 22.5898 4.12825 21.8052 4.62137L7.05309 14.3228L1.36175 12.3398C1.36175 12.3398 0.466104 12.0099 0.37994 11.2925C0.292643 10.574 1.39123 10.1854 1.39123 10.1854L24.5931 0.759803C24.5931 0.759803 26.5 -0.107846 26.5 1.32806Z" fill="currentColor" />
    </symbol>

    <symbol viewBox="0 0 22 21" id="linkedin" xmlns="http://www.w3.org/2000/svg">
        <path d="M21.5 12.5235V20.1076H17.0605V12.986C17.0605 11.2287 16.4131 10.0264 14.8408 10.0264C13.6385 10.0264 12.8985 10.8587 12.6211 11.5987C12.5286 11.8761 12.4361 12.2461 12.4361 12.7085V20.1076H7.99664C7.99664 20.1076 8.08912 8.08408 7.99664 6.88173H12.4361V8.73151C12.991 7.80662 14.1009 6.51177 16.4131 6.51177C19.2803 6.51177 21.5 8.45404 21.5 12.5235ZM3.3722 0.5C1.89237 0.5 0.875 1.51738 0.875 2.81222C0.875 4.10706 1.79989 5.12444 3.27971 5.12444C4.85202 5.12444 5.77691 4.10706 5.77691 2.81222C5.86939 1.42489 4.9445 0.5 3.3722 0.5ZM1.15247 20.1076H5.59193V6.88173H1.15247V20.1076Z" fill="currentColor" />
    </symbol>

    <symbol viewBox="0 0 33 23" id="discord" xmlns="http://www.w3.org/2000/svg">
        <path d="M28.9128 3.28667C26.6422 1.52664 23.9175 0.646677 21.0413 0.5L20.5872 0.940032C23.1605 1.52664 25.4312 2.69996 27.5505 4.31331C24.9771 2.99331 22.1009 2.11335 19.0734 1.82C18.1652 1.67332 17.4082 1.67332 16.5 1.67332C15.5918 1.67332 14.8348 1.67332 13.9266 1.82C10.8991 2.11335 8.02292 2.99331 5.44954 4.31331C7.56876 2.69996 9.83947 1.52664 12.4128 0.940032L11.9587 0.5C9.08253 0.646677 6.35776 1.52664 4.08715 3.28667C1.51376 7.98004 0.151377 13.26 0 18.6866C2.27061 21.0333 5.44954 22.5 8.77986 22.5C8.77986 22.5 9.83947 21.3267 10.5963 20.2999C8.62847 19.86 6.81192 18.8333 5.60092 17.22C6.66053 17.8066 7.72014 18.3933 8.77986 18.8333C10.1422 19.42 11.5046 19.7133 12.867 20.0067C14.078 20.1533 15.289 20.2999 16.5 20.2999C17.711 20.2999 18.922 20.1533 20.133 20.0067C21.4954 19.7133 22.8578 19.42 24.2201 18.8333C25.2799 18.3933 26.3395 17.8066 27.3991 17.22C26.1881 18.8333 24.3715 19.86 22.4037 20.2999C23.1605 21.3267 24.2201 22.5 24.2201 22.5C27.5505 22.5 30.7294 21.0333 33 18.6866C32.8486 13.26 31.4862 7.98004 28.9128 3.28667ZM11.5046 16.0466C9.99085 16.0466 8.62847 14.7266 8.62847 13.1133C8.62847 11.5 9.99085 10.18 11.5046 10.18C13.0184 10.18 14.3808 11.5 14.3808 13.1133C14.3808 14.7266 13.0184 16.0466 11.5046 16.0466ZM21.4954 16.0466C19.9816 16.0466 18.6192 14.7266 18.6192 13.1133C18.6192 11.5 19.9816 10.18 21.4954 10.18C23.0091 10.18 24.3715 11.5 24.3715 13.1133C24.3715 14.7266 23.0091 16.0466 21.4954 16.0466Z" fill="currentColor" />
    </symbol>

    <symbol viewBox="0 0 29 29" id="instagram" xmlns="http://www.w3.org/2000/svg">
        <path fill-rule="evenodd" clip-rule="evenodd" d="M6.38253 3.73193C6.87952 3.56627 7.54217 3.4006 8.86747 3.23494H14.5H20.1325C21.2528 3.23494 21.8996 3.47167 22.373 3.64498C22.3731 3.64498 22.3731 3.64499 22.3731 3.64499C22.4597 3.67671 22.5406 3.7063 22.6175 3.73193C22.6261 3.73624 22.6347 3.74053 22.6433 3.74478C22.7718 3.80865 22.8941 3.86645 23.0114 3.92188L23.0121 3.9222L23.0122 3.92225C23.042 3.93629 23.0713 3.95018 23.1004 3.96397C23.5367 4.17087 23.9054 4.35721 24.2741 4.72587C24.2741 4.72588 24.2741 4.72589 24.2741 4.7259C24.7711 5.22289 25.1024 5.71988 25.2681 6.38253C25.4337 6.87952 25.5994 7.54217 25.7651 8.86747V14.5V20.1325C25.7651 21.2528 25.5283 21.8996 25.355 22.3731C25.3233 22.4597 25.2937 22.5406 25.2681 22.6175C25.2638 22.6261 25.2595 22.6347 25.2552 22.6433C25.1914 22.7718 25.1336 22.8941 25.0781 23.0114L25.0778 23.0121L25.0778 23.0122C25.0637 23.0419 25.0498 23.0713 25.036 23.1004C24.8291 23.5367 24.6428 23.9054 24.2741 24.2741C23.7771 24.7711 23.2801 25.1024 22.6175 25.2681C22.1205 25.4337 21.4578 25.5994 20.1325 25.7651H14.5H8.86747C7.74719 25.7651 7.1004 25.5283 6.62691 25.355L6.62688 25.355L6.62678 25.355C6.54018 25.3233 6.45938 25.2937 6.38253 25.2681C6.24467 25.1991 6.11399 25.1374 5.98898 25.0783L5.98789 25.0778L5.98781 25.0778C5.9878 25.0778 5.98779 25.0778 5.98778 25.0778L5.98773 25.0777L5.98768 25.0777L5.98765 25.0777C5.51237 24.8531 5.11913 24.6673 4.7259 24.2741C4.66378 24.212 4.60424 24.1499 4.5473 24.0874C4.14867 23.6503 3.87688 23.1973 3.73193 22.6175C3.56627 22.1205 3.4006 21.4578 3.23494 20.1325V14.5V8.86747C3.23494 7.7472 3.47168 7.1004 3.64499 6.62692L3.645 6.62689C3.67671 6.54025 3.7063 6.45941 3.73193 6.38253C3.80106 6.24427 3.86298 6.11323 3.9222 5.98789L3.92225 5.98777C4.14684 5.51243 4.33264 5.11917 4.7259 4.7259C5.22289 4.22892 5.71988 3.89759 6.38253 3.73193ZM23.4458 1.41265C22.6175 1.08133 21.6235 0.915663 20.1325 0.75H14.5H8.86747C7.37651 0.75 6.38253 1.08133 5.55422 1.41265C4.7259 1.74398 3.89759 2.24096 3.06928 3.06928C2.24096 3.89759 1.90964 4.56024 1.41265 5.55422C1.08133 6.38253 0.915663 7.37651 0.75 8.86747V14.5V20.1325C0.75 21.6235 1.08133 22.6175 1.41265 23.4458C1.74398 24.2741 2.24096 25.1024 3.06928 25.9307C3.89759 26.759 4.56024 27.0904 5.55422 27.5874C6.38253 27.9187 7.37651 28.0843 8.86747 28.25H14.5H20.1325C21.6235 28.25 22.6175 27.9187 23.4458 27.5874C23.4976 27.5667 23.5493 27.5453 23.6011 27.5233C24.3776 27.1926 25.1542 26.7073 25.9307 25.9307C26.759 25.1024 27.0904 24.4398 27.5874 23.4458C27.9187 22.6175 28.0843 21.6235 28.25 20.1325V14.5V8.86747C28.25 7.37651 27.9187 6.38253 27.5874 5.55422C27.5667 5.50245 27.5453 5.45068 27.5233 5.39891C27.1926 4.62236 26.7073 3.84582 25.9307 3.06928C25.1024 2.24096 24.4398 1.90964 23.4458 1.41265ZM14.5 7.37651C10.5241 7.37651 7.37651 10.5241 7.37651 14.5C7.37651 18.4759 10.5241 21.6235 14.5 21.6235C18.4759 21.6235 21.6235 18.4759 21.6235 14.5C21.6235 10.5241 18.4759 7.37651 14.5 7.37651ZM14.5 19.1386C12.0151 19.1386 9.86145 17.1506 9.86145 14.5C9.86145 12.0151 11.8494 9.86145 14.5 9.86145C16.9849 9.86145 19.1386 11.8494 19.1386 14.5C19.1386 16.9849 16.9849 19.1386 14.5 19.1386ZM23.4458 7.21085C23.4458 8.12577 22.7041 8.86747 21.7892 8.86747C20.8742 8.86747 20.1325 8.12577 20.1325 7.21085C20.1325 6.29592 20.8742 5.55422 21.7892 5.55422C22.7041 5.55422 23.4458 6.29592 23.4458 7.21085Z" fill="currentColor" />
    </symbol>

    <symbol viewBox="0 0 25 28" id="twitch" xmlns="http://www.w3.org/2000/svg">
        <path fill-rule="evenodd" clip-rule="evenodd" d="M5.62873 0.20459L0.718018 5.1153V22.7939H6.61087V27.7046L11.5216 22.7939H15.4502L24.2894 13.9546V0.20459H5.62873ZM22.3252 12.9724L18.3966 16.901H14.468L11.0305 20.3385V16.901H6.61087V2.16887H22.3252V12.9724ZM19.3787 5.60638H17.4144V11.4992H19.3787V5.60638ZM12.0127 5.60638H13.9769V11.4992H12.0127V5.60638Z" fill="currentColor" />
    </symbol>

    <symbol viewBox="0 0 31 21" id="youtube" xmlns="http://www.w3.org/2000/svg">
        <path fill-rule="evenodd" clip-rule="evenodd" d="M3.48592 20.2031C2.94656 20.0435 2.45443 19.7597 2.05107 19.3754C1.6477 18.9912 1.34493 18.5179 1.1683 17.9954C0.159016 15.2951 -0.140032 4.01953 1.80378 1.7936C2.45071 1.06949 3.3641 0.623675 4.34568 0.552919C9.56033 0.00555947 25.6715 0.0785414 27.5219 0.735373C28.0423 0.900194 28.5178 1.17785 28.9127 1.54754C29.3076 1.91723 29.6117 2.36937 29.8021 2.87007C30.9049 5.66161 30.9422 15.806 29.6526 18.4881C29.3105 19.1862 28.7378 19.7517 28.0265 20.0936C26.0827 21.0424 6.06521 21.0242 3.48592 20.2031ZM11.7658 14.912L21.111 10.1682L11.7658 5.38793V14.912Z" fill="currentColor" />
    </symbol>

    <symbol viewBox="0 0 31 32" id="mastodon" xmlns="http://www.w3.org/2000/svg">
        <path fill-rule="evenodd" clip-rule="evenodd" d="M21.9351 24.1044C25.9984 23.6312 29.5364 21.1897 29.981 18.9589C30.6817 15.4447 30.6238 10.383 30.6238 10.383C30.6238 3.52256 26.0147 1.51167 26.0147 1.51167C23.6907 0.470777 19.7 0.0330549 15.554 0H15.4521C11.3062 0.0330549 7.31811 0.470777 4.99395 1.51167C4.99395 1.51167 0.384588 3.52256 0.384588 10.383C0.384588 10.7989 0.382384 11.2363 0.380089 11.6917C0.373716 12.9565 0.366645 14.3597 0.404157 15.8243C0.571541 22.5334 1.66548 29.1456 8.02643 30.7874C10.9593 31.5444 13.4774 31.7029 15.5054 31.5942C19.1832 31.3954 21.2477 30.3143 21.2477 30.3143L21.1264 27.7121C21.1264 27.7121 18.4983 28.5203 15.5467 28.4218C12.6223 28.324 9.53516 28.1142 9.06219 24.613C9.01851 24.3054 8.99667 23.9766 8.99667 23.6312C8.99667 23.6312 11.8674 24.3155 15.5054 24.478C17.73 24.5775 19.8162 24.3509 21.9351 24.1044ZM25.1869 19.2219V10.9151C25.1869 9.21738 24.7437 7.86827 23.8535 6.87014C22.9351 5.87202 21.7327 5.36035 20.2402 5.36035C18.5131 5.36035 17.2053 6.00765 16.3407 7.30241L15.5 8.67658L14.6594 7.30241C13.7947 6.00765 12.4869 5.36035 10.7599 5.36035C9.26726 5.36035 8.06481 5.87202 7.14665 6.87014C6.25626 7.86827 5.81299 9.21738 5.81299 10.9151V19.2219H9.18776V11.1593C9.18776 9.45967 9.92107 8.59701 11.3879 8.59701C13.0096 8.59701 13.8226 9.62035 13.8226 11.6439V16.057H17.1775V11.6439C17.1775 9.62035 17.9903 8.59701 19.6121 8.59701C21.0789 8.59701 21.8122 9.45967 21.8122 11.1593V19.2219H25.1869Z" fill="currentColor" />
    </symbol>

    <symbol viewBox="0 0 31 28" id="bluesky" xmlns="http://www.w3.org/2000/svg">
        <path d="M7.00031 2.32605C10.4301 4.96339 14.1192 10.3108 15.4737 13.1805C16.8283 10.311 20.5172 4.96333 23.9471 2.32605C26.4218 0.423056 30.4316 -1.04937 30.4316 3.63598C30.4316 4.5717 29.9078 11.4966 29.6006 12.6208C28.5328 16.5294 24.6416 17.5263 21.1803 16.9229C27.2305 17.9776 28.7697 21.4712 25.4458 24.9647C19.133 31.5997 16.3725 23.3 15.6648 21.1733C15.5352 20.7835 15.4745 20.6011 15.4736 20.7562C15.4727 20.6011 15.412 20.7835 15.2824 21.1733C14.575 23.3 11.8146 31.5999 5.50145 24.9647C2.1775 21.4712 3.71656 17.9774 9.76688 16.9229C6.30552 17.5263 2.4143 16.5294 1.34661 12.6208C1.0394 11.4965 0.515625 4.5716 0.515625 3.63598C0.515625 -1.04937 4.52548 0.423056 7.00013 2.32605H7.00031Z" fill="currentColor" />
    </symbol>

    <symbol viewBox="0 0 30 32" id="monobank" xmlns="http://www.w3.org/2000/svg">
        <path fill-rule="evenodd" clip-rule="evenodd" d="M15.1038 6.19502C15.1038 9.10166 13.3856 11.4579 11.2663 11.4579C9.14675 11.4579 7.42854 9.10166 7.42854 6.19502C7.42854 3.28839 9.14675 0.932129 11.2663 0.932129C13.3856 0.932129 15.1038 3.28839 15.1038 6.19502ZM6.99706 17.4753C7.77299 16.8285 8.45764 16.1287 9.1089 15.4631C10.883 13.6498 12.4103 12.0887 14.8658 12.5349C17.8135 13.0708 18.6034 14.9724 19.5789 17.3209C19.8778 18.0406 20.1941 18.8024 20.5952 19.5796C20.9852 20.3348 21.4104 20.9151 21.8259 21.4827C22.4106 22.2809 22.9767 23.0534 23.3994 24.2515C24.3043 26.8147 23.7095 29.898 21.0627 31.0915C18.8313 32.0977 17.0965 31.2458 15.2791 30.3536C14.1575 29.803 13.0045 29.2371 11.6842 29.0826C10.5015 28.9444 9.37706 29.0461 8.31618 29.1421C6.0999 29.3427 4.16049 29.5183 2.54387 27.4284C1.08126 25.5377 1.46477 22.6465 2.92131 20.8565C3.78021 19.6772 4.88723 18.9385 5.84106 18.3018C6.26929 18.0158 6.66677 17.7506 6.99706 17.4753ZM18.5287 12.8941C20.5226 13.7714 23.0981 12.2527 24.2816 9.50181C25.4649 6.75093 24.808 3.8097 22.8141 2.93225C20.8203 2.055 18.2446 3.57391 17.0613 6.32479C15.8777 9.07567 16.5349 12.0169 18.5287 12.8941ZM28.714 18.3288C27.1431 20.4112 24.5846 21.1077 22.9993 19.8845C21.4141 18.6612 21.4023 15.9815 22.9732 13.8991C24.5443 11.8167 27.1028 11.1204 28.688 12.3436C30.2733 13.5667 30.285 16.2464 28.714 18.3288ZM4.61584 16.7499C6.53684 16.362 7.68677 13.9843 7.18426 11.4389C6.68175 8.89371 4.71724 7.14473 2.79624 7.5326C0.87544 7.92026 -0.27449 10.2982 0.227819 12.8434C0.730331 15.3888 2.69484 17.1377 4.61584 16.7499Z" fill="currentColor" />
    </symbol>

    <symbol viewBox="0 0 26 20" id="email" xmlns="http://www.w3.org/2000/svg">
        <path d="M2.28516 0.859375H23.7148C24.9774 0.859375 26 1.8883 26 3.14453V16.8555C26 18.1192 24.9699 19.1406 23.7148 19.1406H2.28516C1.03314 19.1406 0 18.1235 0 16.8555V3.14453C0 1.89054 1.01852 0.859375 2.28516 0.859375ZM2.60518 2.38281C3.07206 2.84721 11.1067 10.8396 11.3841 11.1155C11.8158 11.5472 12.3896 11.7848 13 11.7848C13.6104 11.7848 14.1842 11.5471 14.6173 11.1141C14.8039 10.9285 22.7498 3.02438 23.3948 2.38281H2.60518ZM24.4766 16.5454V3.45557L17.8934 10.0041L24.4766 16.5454ZM23.3939 17.6172L16.8133 11.0784L15.6931 12.1927C14.9737 12.9121 14.0173 13.3082 13 13.3082C11.9827 13.3082 11.0263 12.9121 10.3083 12.1942L9.18673 11.0784L2.60615 17.6172H23.3939ZM1.52344 16.5454L8.10662 10.0041L1.52344 3.45557V16.5454Z" fill="currentColor" />
    </symbol>

    <symbol viewBox="0 0 17 17" id="close" xmlns="http://www.w3.org/2000/svg">
        <path fill-rule="evenodd" clip-rule="evenodd" d="M8.40153 7.42242L0.979101 0L3.05176e-05 0.979071L7.42246 8.40149L0.267615 15.5563L1.24669 16.5354L8.40153 9.38057L15.5564 16.5354L16.5354 15.5563L9.3806 8.40149L16.803 0.979071L15.8239 0L8.40153 7.42242Z" fill="currentColor" />
    </symbol>

    <symbol viewBox="0 0 19 23" id="location" xmlns="http://www.w3.org/2000/svg">
        <path fill-rule="evenodd" clip-rule="evenodd" d="M0.275391 9.21929C0.275391 4.13711 4.4125 0 9.49468 0C14.5769 0 18.714 4.13711 18.7236 9.21929C18.7236 9.7979 18.6657 10.3813 18.5597 10.9503C18.5548 10.9841 18.5356 11.0853 18.497 11.2589C18.3571 11.8857 18.1498 12.4933 17.8798 13.0767C16.8865 15.4153 14.6974 19.0075 9.90935 22.8553C9.78881 22.9518 9.64415 23 9.4995 23C9.35484 23 9.21019 22.9518 9.08964 22.8553C4.29677 19.0075 2.1125 15.4153 1.11921 13.0767C0.849185 12.4933 0.641848 11.8809 0.502015 11.2589C0.463441 11.0853 0.444154 10.9841 0.439332 10.9503C0.32843 10.3813 0.275391 9.7979 0.275391 9.21929ZM17.265 10.7382C17.2662 10.7333 17.2674 10.7285 17.2674 10.7237C17.3639 10.2319 17.4121 9.72558 17.4121 9.21447C17.4121 4.85073 13.8584 1.29707 9.49468 1.29707C5.13095 1.29707 1.57728 4.85073 1.57728 9.21447C1.57728 9.72076 1.62549 10.2222 1.72193 10.7189C1.72193 10.7268 1.72339 10.7333 1.72471 10.7392C1.72578 10.744 1.72675 10.7483 1.72675 10.7526C1.72777 10.7577 1.729 10.7649 1.73058 10.7742C1.73649 10.8089 1.74731 10.8724 1.77015 10.96V10.9696C1.89552 11.5096 2.07392 12.04 2.30537 12.5415C2.30778 12.5439 2.30899 12.5475 2.31019 12.5512C2.3114 12.5548 2.3126 12.5584 2.31501 12.5608C3.21669 14.6969 5.19363 17.9564 9.49468 21.5101C13.7957 17.9564 15.7727 14.6969 16.6743 12.5608C16.6767 12.5584 16.678 12.5548 16.6792 12.5512C16.6804 12.5475 16.6816 12.5439 16.684 12.5415C16.9202 12.0352 17.0987 11.5096 17.2192 10.9696V10.96C17.2433 10.8491 17.2578 10.7767 17.2626 10.7526C17.2626 10.7478 17.2638 10.743 17.265 10.7382ZM3.64062 9.32047C3.64062 6.09468 6.26851 3.4668 9.49429 3.4668C12.7201 3.4668 15.348 6.09468 15.348 9.32047C15.348 12.5463 12.7201 15.1741 9.49429 15.1741C6.26851 15.1741 3.64062 12.5463 3.64062 9.32047ZM4.94251 9.32047C4.94251 11.8278 6.98213 13.8722 9.49429 13.8722C12.0065 13.8722 14.0461 11.8278 14.0461 9.32047C14.0461 6.81313 12.0016 4.76868 9.49429 4.76868C6.98696 4.76868 4.94251 6.81313 4.94251 9.32047Z" fill="currentColor" />
    </symbol>

    <symbol viewBox="0 0 132 97" id="email-2" xmlns="http://www.w3.org/2000/svg">
        <path fill-rule="evenodd" clip-rule="evenodd" d="M29.6699 25.8177L1.7327 41.7696C1.16864 42.0918 0.757617 42.6237 0.590076 43.248C0.422763 43.8724 0.512882 44.5383 0.840228 45.0994L28.6784 92.7885C29.0058 93.3494 29.544 93.7596 30.1744 93.9285C30.8048 94.0974 31.476 94.0113 32.04 93.6893L104.402 52.3716C105.577 51.7007 105.976 50.2098 105.294 49.0417L77.4563 1.3524C76.7744 0.184497 75.2692 -0.218812 74.0946 0.45164L46.9239 15.9657C45.7492 16.6366 45.3498 18.1274 46.0317 19.2955C46.7139 20.4635 48.219 20.8668 49.3936 20.1964L70.805 7.97086L59.7128 49.3676C58.7926 52.8016 55.2236 54.8397 51.7564 53.9106L9.96144 42.7117L32.1396 30.0484C33.3143 29.3775 33.7137 27.8866 33.0318 26.7185C32.3497 25.5505 30.8445 25.1472 29.6699 25.8177ZM67.786 38.2525L75.8206 8.26728L98.0595 46.3643L67.786 38.2525ZM96.7979 51.073L34.7055 86.5267L42.7399 56.5416L50.4942 58.6194C56.5826 60.2508 62.8506 56.6718 64.4664 50.6414L66.5244 42.9612L96.7979 51.073ZM37.986 55.2678L29.9515 85.2531L7.71274 47.1561L37.986 55.2678ZM41.2648 22.0011C40.5781 20.8357 39.0715 20.4386 37.8995 21.1138C36.7275 21.7892 36.3249 23.2868 37.0116 24.4524C37.3545 25.0343 37.8997 25.4262 38.5053 25.5885C39.1127 25.7512 39.781 25.6835 40.3677 25.3453L40.3858 25.3346C41.5579 24.6591 41.9512 23.1667 41.2648 22.0011ZM108.667 61.4632L122.604 65.1976C123.916 65.5494 124.698 66.8889 124.35 68.189C124.001 69.4891 122.655 70.2583 121.342 69.9065L107.405 66.1721C106.092 65.8203 105.31 64.481 105.659 63.1807C106.007 61.8806 107.354 61.1114 108.667 61.4632ZM101.613 59.5735L101.578 59.5639C100.265 59.2121 98.9181 59.9813 98.5697 61.2814C98.2214 62.5815 99.0031 63.921 100.316 64.2728L100.352 64.2823C101.664 64.6341 103.011 63.865 103.36 62.5648C103.708 61.2647 102.926 59.9252 101.613 59.5735ZM121.619 38.4384L129.227 40.4768C130.539 40.8286 131.321 42.168 130.973 43.4682C130.624 44.7683 129.278 45.5374 127.965 45.1857L120.358 43.1473C119.045 42.7955 118.263 41.456 118.611 40.1559C118.96 38.8558 120.306 38.0866 121.619 38.4384ZM113.855 36.3579L104.863 33.9485C103.551 33.5967 102.204 34.3658 101.855 35.666C101.507 36.9661 102.289 38.3056 103.602 38.6573L112.594 41.0668C113.907 41.4185 115.253 40.6494 115.602 39.3492C115.95 38.0491 115.168 36.7096 113.855 36.3579ZM89.5949 70.2319L102.906 73.7987C104.219 74.1505 105.001 75.4899 104.653 76.7901C104.304 78.0902 102.957 78.8593 101.645 78.5076L88.3332 74.9408C87.0203 74.589 86.2386 73.2495 86.5869 71.9494C86.9353 70.6493 88.2823 69.8802 89.5949 70.2319ZM108.678 91.4951L75.1614 82.5143C73.8485 82.1625 72.5018 82.9317 72.1534 84.2318C71.8051 85.532 72.5868 86.8714 73.8997 87.2232L107.416 96.204C108.729 96.5557 110.076 95.7866 110.424 94.4864C110.773 93.1863 109.991 91.8469 108.678 91.4951Z" fill="currentColor"/>
    </symbol>

    <symbol viewBox="0 0 35 34" id="star" xmlns="http://www.w3.org/2000/svg">
        <path d="M17.5122 0L21.6251 12.6581H34.9346L24.167 20.4812L28.2798 33.1393L17.5122 25.3162L6.7446 33.1393L10.8575 20.4812L0.0898438 12.6581H13.3994L17.5122 0Z" fill="currentColor"/>
    </symbol>

    <symbol viewBox="0 0 144 132" id="success" xmlns="http://www.w3.org/2000/svg">
        <path d="M0.96875 22.0676H110.881V131.98H0.96875V22.0676Z" fill="#EBFAFF" />
        <path d="M56.3593 115.577L55.6621 114.389C44.9766 96.1863 16.5883 57.5596 16.303 57.1714L15.8945 56.6169L25.5641 47.0626L56.1802 68.441C75.4585 43.4245 93.4421 26.2444 105.173 16.21C118.004 5.23484 126.358 0.183552 126.442 0.134641L126.631 0.0212402H143.029L141.468 1.41226C101.165 37.3096 57.4768 113.614 57.0407 114.381L56.3593 115.577Z" fill="#01BEFE"/>
    </symbol>

</svg>